<svg width="40" height="40" viewBox="0 0 40 40" fill="none" xmlns="http://www.w3.org/2000/svg">
<path d="M27.2222 5.55566H12.7778C8.80591 5.55566 5.55556 8.80461 5.55556 12.7779V27.2223C5.55556 31.1942 8.80591 34.4446 12.7778 34.4446H27.2222C31.1941 34.4446 34.4444 31.1942 34.4444 27.2223V12.7779C34.4444 8.80461 31.1941 5.55566 27.2222 5.55566ZM20 26.0184C16.6756 26.0184 13.9814 23.323 13.9814 20.0001C13.9814 16.6757 16.6756 13.9815 20 13.9815C23.3229 13.9815 26.0186 16.6757 26.0186 20.0001C26.0186 23.323 23.3229 26.0184 20 26.0184ZM27.8242 13.9815C26.8261 13.9815 26.0186 13.1729 26.0186 12.1759C26.0186 11.1789 26.8261 10.3704 27.8242 10.3704C28.8223 10.3704 29.6297 11.1789 29.6297 12.1759C29.6297 13.1729 28.8223 13.9815 27.8242 13.9815Z" fill="#EBF0F4"/>
</svg>
