<svg width="41" height="40" viewBox="0 0 41 40" fill="none" xmlns="http://www.w3.org/2000/svg">
<path d="M36.8976 9.82392C35.6771 10.3593 34.3766 10.7142 33.0207 10.8865C34.4156 10.0537 35.4802 8.74494 35.9807 7.1675C34.6802 7.94289 33.2443 8.49058 31.714 8.79622C30.4792 7.48135 28.7192 6.66699 26.7992 6.66699C23.074 6.66699 20.0751 9.69058 20.0751 13.3972C20.0751 13.9306 20.1202 14.4434 20.231 14.9316C14.6371 14.6588 9.68737 11.9778 6.36225 7.89366C5.78173 8.90084 5.44122 10.0537 5.44122 11.2947C5.44122 13.6249 6.64122 15.6906 8.42994 16.8865C7.34891 16.866 6.2884 16.5521 5.38994 16.0578C5.38994 16.0783 5.38994 16.1049 5.38994 16.1316C5.38994 19.4014 7.72225 22.1172 10.7807 22.7429C10.233 22.8926 9.63609 22.9644 9.01661 22.9644C8.58584 22.9644 8.15096 22.9398 7.74276 22.8496C8.61455 25.5142 11.0884 27.4731 14.0299 27.5367C11.7407 29.3275 8.83404 30.4065 5.68737 30.4065C5.13558 30.4065 4.60635 30.3819 4.07712 30.3142C7.05763 32.2362 10.5899 33.3337 14.3992 33.3337C26.7807 33.3337 33.5499 23.0772 33.5499 14.187C33.5499 13.8896 33.5397 13.6024 33.5253 13.3172C34.8607 12.3696 35.9828 11.186 36.8976 9.82392Z" fill="#EBF0F4"/>
</svg>
