<svg width="41" height="40" viewBox="0 0 41 40" fill="none" xmlns="http://www.w3.org/2000/svg">
<g clip-path="url(#clip0_1167_2707)">
<path d="M40.6598 29.1995C40.6114 29.0951 40.5662 29.0085 40.5243 28.9391C39.8303 27.6892 38.5041 26.155 36.5465 24.3361L36.5051 24.2945L36.4844 24.2741L36.4635 24.2531H36.4424C35.554 23.4062 34.9913 22.8367 34.7557 22.5451C34.3246 21.9897 34.2281 21.4275 34.4637 20.8579C34.6301 20.4275 35.2554 19.5186 36.3381 18.13C36.9075 17.394 37.3586 16.8042 37.6916 16.3598C40.0938 13.1663 41.1352 11.1256 40.8157 10.2369L40.6916 10.0292C40.6083 9.90419 40.3931 9.78981 40.0464 9.6855C39.6989 9.5814 39.2547 9.56419 38.7131 9.63356L32.7152 9.67499C32.6181 9.64056 32.4793 9.64377 32.2986 9.6855C32.118 9.72722 32.0277 9.74816 32.0277 9.74816L31.9234 9.80031L31.8405 9.86297C31.771 9.9044 31.6947 9.97728 31.6113 10.0814C31.5284 10.1852 31.459 10.3071 31.4035 10.4459C30.7505 12.1259 30.0081 13.6878 29.1749 15.1317C28.6611 15.9927 28.1893 16.7388 27.7584 17.3706C27.3281 18.0022 26.9671 18.4675 26.6758 18.7658C26.384 19.0643 26.1206 19.3035 25.8842 19.4842C25.648 19.665 25.4678 19.7413 25.343 19.7134C25.2179 19.6855 25.1001 19.6577 24.9885 19.63C24.7943 19.505 24.638 19.335 24.5202 19.1198C24.4019 18.9046 24.3223 18.6337 24.2806 18.3075C24.2392 17.981 24.2147 17.7001 24.2077 17.464C24.2012 17.2282 24.2042 16.8946 24.2182 16.4642C24.2327 16.0336 24.2392 15.7423 24.2392 15.5895C24.2392 15.0618 24.2495 14.4891 24.2701 13.8713C24.2911 13.2535 24.3081 12.7639 24.3223 12.4033C24.3365 12.0423 24.3431 11.6603 24.3431 11.2577C24.3431 10.855 24.3185 10.5392 24.2701 10.3101C24.2223 10.0811 24.1488 9.85896 24.052 9.64355C23.9546 9.42836 23.8121 9.2619 23.6251 9.14373C23.4377 9.02571 23.2047 8.93205 22.9274 8.86246C22.1915 8.69592 21.2543 8.60584 20.1156 8.59183C17.5333 8.56411 15.874 8.73086 15.1381 9.09187C14.8466 9.2444 14.5827 9.4528 14.3468 9.71642C14.0968 10.022 14.062 10.1887 14.2424 10.2162C15.0756 10.341 15.6654 10.6395 16.0126 11.1116L16.1377 11.3617C16.235 11.5422 16.3322 11.8617 16.4294 12.3198C16.5265 12.7779 16.5891 13.2846 16.6167 13.8397C16.686 14.8534 16.686 15.7212 16.6167 16.4431C16.5472 17.1652 16.4815 17.7274 16.4189 18.1301C16.3562 18.5327 16.2626 18.859 16.1377 19.1088C16.0126 19.3587 15.9293 19.5115 15.8876 19.5669C15.846 19.6224 15.8113 19.6573 15.7837 19.671C15.6032 19.7402 15.4155 19.7754 15.2213 19.7754C15.0267 19.7754 14.7908 19.6781 14.5132 19.4836C14.2356 19.2891 13.9476 19.022 13.649 18.6818C13.3504 18.3415 13.0137 17.866 12.6387 17.2551C12.264 16.6443 11.8752 15.9224 11.4726 15.0893L11.1394 14.4852C10.9312 14.0966 10.6467 13.5306 10.2857 12.788C9.92444 12.045 9.60516 11.3264 9.3276 10.6322C9.21665 10.3406 9.04998 10.1186 8.82786 9.9659L8.72362 9.90324C8.65432 9.8478 8.54308 9.78893 8.39048 9.7262C8.23766 9.66354 8.0782 9.6186 7.91145 9.59096L2.20503 9.63239C1.62191 9.63239 1.22625 9.76449 1.01792 10.0283L0.934547 10.1531C0.892895 10.2227 0.871887 10.3337 0.871887 10.4865C0.871887 10.6393 0.913539 10.8267 0.996915 11.0487C1.82995 13.0065 2.73585 14.8947 3.71463 16.7135C4.69341 18.5323 5.54394 19.9974 6.26574 21.1075C6.98767 22.2184 7.72354 23.2668 8.47334 24.2523C9.22315 25.2382 9.71946 25.87 9.9623 26.1475C10.2054 26.4256 10.3964 26.6335 10.5352 26.7723L11.056 27.272C11.3892 27.6053 11.8785 28.0045 12.5241 28.4695C13.1699 28.9348 13.8848 29.3929 14.6693 29.8445C15.4539 30.2954 16.3667 30.6633 17.4081 30.9479C18.4494 31.2327 19.4629 31.347 20.4487 31.2919H22.8438C23.3296 31.2499 23.6976 31.0972 23.9477 30.8336L24.0306 30.7292C24.0863 30.6463 24.1384 30.5176 24.1866 30.3443C24.2353 30.1708 24.2595 29.9796 24.2595 29.7716C24.2453 29.1747 24.2907 28.6368 24.3946 28.1578C24.4984 27.679 24.6167 27.318 24.7491 27.0749C24.8813 26.832 25.0306 26.627 25.1967 26.4608C25.3631 26.2943 25.4817 26.1934 25.5513 26.1587C25.6205 26.1237 25.6757 26.1 25.7173 26.0858C26.0505 25.9748 26.4427 26.0823 26.8944 26.4089C27.3457 26.7352 27.769 27.138 28.1649 27.6168C28.5607 28.0961 29.0361 28.6338 29.5914 29.2307C30.147 29.8278 30.6328 30.2717 31.0492 30.5637L31.4655 30.8136C31.7436 30.9803 32.1046 31.1331 32.549 31.2719C32.9926 31.4106 33.3812 31.4454 33.715 31.376L39.0463 31.2928C39.5736 31.2928 39.9839 31.2055 40.275 31.0323C40.5666 30.8587 40.7399 30.6676 40.7957 30.4596C40.8515 30.2514 40.8545 30.0152 40.8063 29.7511C40.7569 29.4877 40.7083 29.3036 40.6598 29.1995Z" fill="#EBF0F4"/>
</g>
<defs>
<clipPath id="clip0_1167_2707">
<rect width="40" height="40" fill="white" transform="translate(0.871887)"/>
</clipPath>
</defs>
</svg>
